<svg xmlns="http://www.w3.org/2000/svg" viewBox="0 0 74.42 71.62"><defs><style>.cls-1{isolation:isolate;}.cls-2{mix-blend-mode:multiply;}.cls-3{fill:#ffe94a;}</style></defs><title>cerchio_ico_trig</title><g class="cls-1"><g id="Layer_2" data-name="Layer 2"><g id="Layer_1-2" data-name="Layer 1"><g class="cls-2"><path class="cls-3" d="M50.21,68.86c-3,1-7.21.53-10.33.46a25.14,25.14,0,0,1-10.6-3.07c-3.45-1.73-7-2.8-10.25-4.91a38.25,38.25,0,0,1-9.38-8.15C6.38,49.3,4.7,45.25,3.08,40.53a20.75,20.75,0,0,1-.5-11.4c.93-3.86,4-7.44,6-10.86,2.11-3.63,5.88-5.22,8.77-8.16a21.75,21.75,0,0,1,5-3.54c1.81-1.06,3-2.7,5.08-3.35A40.76,40.76,0,0,1,38.51,1.89c3.54,0,6.43,1.48,9.75,2.57,6.43,2.12,14.11,5.94,18.42,11.46a25.15,25.15,0,0,1,5.69,16.42c0,3.32.07,6.66,0,10,0,4-1.42,7.41-2.85,11.07a21.94,21.94,0,0,1-6.33,9,10.64,10.64,0,0,1-4.08,3.06C56.92,66.39,53.31,67.82,50.21,68.86Z"/><path d="M49.52,67c-9,2.31-17.33-1.49-25.31-5.17A34.41,34.41,0,0,1,6.68,44.35c-1.82-4.19-3.2-8.64-2.43-13.25C4.92,27,7.42,23.79,9.6,20.42s5.18-5.36,8.16-8C21,9.64,25.26,6,29.36,4.82,37.77,2.34,46.49,5.31,54.08,9c7.13,3.46,13.28,8.85,15.44,16.73A43.92,43.92,0,0,1,67.7,52.53C64.08,61.17,57.89,64.06,49.52,67c-2.47.86-1.08,4.66,1.38,3.81,6.7-2.32,12.55-4.47,17-10.25,4.91-6.44,6.58-14.45,6.56-22.34,0-8.09-.33-15.34-5.15-22.17C65.18,10.22,58.89,6.43,52.42,3.83,44.72.75,37.83-1,29.53.64,22.6,2,16.82,8,11.47,12.28,6.38,16.37,1.31,23.82.26,30.37-.92,37.72,2,45.66,6,51.74c5.16,7.78,12.66,11.88,20.9,15.64,7.57,3.45,15.64,5.51,24,3.38C53.43,70.11,52,66.31,49.52,67Z"/></g></g></g></g></svg>