<svg xmlns="http://www.w3.org/2000/svg" viewBox="0 0 74.41 71.93"><defs><style>.cls-1{isolation:isolate;}.cls-2{mix-blend-mode:multiply;}.cls-3{fill:#ffe94a;}</style></defs><title>cerchio_ico_trig</title><g class="cls-1"><g id="Layer_2" data-name="Layer 2"><g id="Layer_1-2" data-name="Layer 1"><g class="cls-2"><path class="cls-3" d="M50.21,69c-3,1-8.21.54-11.33.47a20,20,0,0,1-9.6-2.08A108.24,108.24,0,0,1,19,61.49a38.25,38.25,0,0,1-9.38-8.15C6.38,49.45,4.7,45.4,3.08,40.68a20.75,20.75,0,0,1-.5-11.4c.93-3.85,4-7.44,6-10.85,2.11-3.64,5.88-5.22,8.77-8.17,1.59-1.62,8-6.24,10.07-6.88A40,40,0,0,1,38.51,2.05c3.54,0,6.43,1.47,9.75,2.57,6.43,2.12,14.11,5.93,18.42,11.45a25.17,25.17,0,0,1,5.69,16.42c0,3.33.07,6.66,0,10,0,4-1.42,7.42-2.85,11.07a21.94,21.94,0,0,1-6.33,9.05,10.62,10.62,0,0,1-4.08,3.07C56.92,66.54,53.31,68,50.21,69Z"/><path d="M49.52,67.11C33.22,71.27,13.15,59.44,6.68,44.5c-2-4.66-3.53-9.79-2.11-14.86,1.09-3.91,3.91-8,6.41-11.19,2.18-2.78,5.6-4.9,8.28-7.23a41.61,41.61,0,0,1,7.09-5.07c7.87-4.28,17.38-1.4,25,1.78S66.26,16.24,69.1,24.5c1.36,4,1.25,8,1.27,12.15,0,5.81-.38,10.63-2.67,16a23.35,23.35,0,0,1-6.28,8.89c-3.36,2.87-7.76,4.1-11.9,5.54-2.47.85-1.08,4.66,1.38,3.8,7-2.42,13-4.68,17.42-10.9,5.06-7.17,6.13-15.19,6.09-23.69,0-8-1-15-6.08-21.42C63.67,9,56.7,5.47,49.77,3,42.3.34,34.51-1.38,26.7,1.47c-5.39,2-9.65,6.59-14,10.06C7.21,15.83,1.87,22.76.42,29.72-1.15,37.31,1.88,45.58,6,51.89c5,7.53,13,12.52,20.9,16.59,6.88,3.56,16.47,4.35,24,2.43C53.43,70.27,52,66.47,49.52,67.11Z"/></g></g></g></g></svg>