<svg xmlns="http://www.w3.org/2000/svg" viewBox="0 0 74.36 71.87"><title>cerchio_ico_1</title><g id="Layer_2" data-name="Layer 2"><g id="Layer_1-2" data-name="Layer 1"><path d="M49.5,67.09C33.23,71.25,13.09,59.38,6.63,44.47c-2-4.66-3.53-9.8-2.11-14.87,1.11-4,4-8.06,6.49-11.38A43.71,43.71,0,0,1,26.29,6c8-3.82,16.62-1.54,24.4,1.57s15,8,18.16,16.2,2.37,20-.84,28.09a23.94,23.94,0,0,1-6.59,9.66c-3.36,2.88-7.76,4.12-11.92,5.55-2.43.84-1.06,4.6,1.37,3.76,7-2.41,13-4.7,17.41-10.9,5-7.15,6.12-15.18,6.08-23.66,0-8.2-1.09-15.45-6.53-21.95C63,8.57,56,5.24,49.08,2.77,41.75.16,34-1.29,26.42,1.56c-5.15,1.93-9.72,5.63-13.71,9.31-5,4.6-10.45,11.23-12.12,18C-1.34,36.7,1.72,45.32,6,51.84c5,7.52,13,12.5,20.89,16.57,6.9,3.57,16.43,4.36,23.94,2.44C53.36,70.21,52,66.46,49.5,67.09Z"/></g></g></svg>