<svg xmlns="http://www.w3.org/2000/svg" viewBox="0 0 74.35 71.87"><title>cerchio_ico</title><g id="Layer_2" data-name="Layer 2"><g id="Layer_1-2" data-name="Layer 1"><path d="M49.5,67.11C33.19,71.27,13.1,59.44,6.62,44.49c-2-4.67-3.53-9.8-2.11-14.88,1.1-3.91,3.92-8,6.42-11.21,2.18-2.78,5.6-4.9,8.29-7.23A41.53,41.53,0,0,1,26.3,6.1c7.88-4.28,17.41-1.41,25.06,1.77s14.89,8.32,17.73,16.59c1.37,4,1.26,8,1.28,12.16,0,5.81-.38,10.64-2.67,16.05a23.35,23.35,0,0,1-6.29,8.89c-3.36,2.87-7.76,4.11-11.91,5.55-2.43.84-1.06,4.59,1.37,3.75,7-2.42,13-4.68,17.4-10.9,5-7.16,6.12-15.17,6.08-23.66,0-8-1-15-6.07-21.41C63.62,9,56.65,5.47,49.73,3c-7.46-2.66-15.25-4.38-23-1.53-5.38,2-9.64,6.59-14,10.06C7.21,15.82,1.87,22.75.42,29.7-1.15,37.28,1.88,45.55,6,51.85c5,7.53,13,12.51,20.9,16.58,6.86,3.55,16.45,4.34,23.94,2.43C53.36,70.22,52,66.47,49.5,67.11Z"/></g></g></svg>