<svg xmlns="http://www.w3.org/2000/svg" viewBox="0 0 74.37 71.57"><title>cerchio_ico</title><g id="Layer_2" data-name="Layer 2"><g id="Layer_1-2" data-name="Layer 1"><path d="M49.5,67c-9,2.31-17.34-1.49-25.33-5.17A34.49,34.49,0,0,1,6.62,44.33c-1.81-4.19-3.19-8.64-2.43-13.27C4.87,27,7.37,23.75,9.55,20.38s5.18-5.36,8.16-8C20.92,9.59,25.22,6,29.33,4.77c8.42-2.49,17.14.48,24.73,4.16,7.14,3.46,13.29,8.85,15.46,16.74A44,44,0,0,1,67.7,52.51C64.07,61.16,57.88,64.05,49.5,67c-2.43.84-1.06,4.6,1.37,3.76,6.69-2.32,12.54-4.47,16.94-10.24C72.72,54,74.39,46,74.36,38.14c0-8.08-.32-15.33-5.14-22.15C65.13,10.21,58.85,6.42,52.38,3.83,44.69.75,37.8-1,29.5.64,22.59,2,16.8,8,11.46,12.28,6.37,16.36,1.31,23.8.26,30.35-.91,37.69,2,45.62,6,51.7c5.16,7.77,12.66,11.87,20.9,15.63,7.56,3.45,15.62,5.5,23.94,3.38C53.36,70.07,52,66.32,49.5,67Z"/></g></g></svg>