<svg xmlns="http://www.w3.org/2000/svg" viewBox="0 0 60.17 73.67"><title>coso_ico</title><g id="Layer_2" data-name="Layer 2"><g id="Layer_1-2" data-name="Layer 1"><path d="M51.4,66.09c-6.55,6.18-18.81,3.72-25.2-1.57A60.08,60.08,0,0,1,9.8,43.12c-3.44-7.84-5.93-15.26-5.73-24,.16-7,5.82-14.23,13.32-9.9A13.38,13.38,0,0,1,22.2,14c.25.43,2.31,4.35,2.23,4.47l1.89-.69c-1.46-.31-2.12-5.07-2.18-6.28-.17-3.33,1.63-5.23,4.5-6.51A10.25,10.25,0,0,1,39.58,6.21c3,2.19,6.14,5.17,7.67,8.55,1.66,3.68,2.88,7.55,4.42,11.28a60.08,60.08,0,0,1,3.91,16.9c.87,7.86,1.47,17-4.18,23.15-1.74,1.89,1.33,4.44,3.08,2.55,7.17-7.77,6-19.34,4.68-29.17a55.54,55.54,0,0,0-2.83-12.58c-2.1-5.47-3.76-12.38-7.27-17.12C43.51,2.29,34.81-3,25.87,1.88,22.08,3.94,20.1,6.67,20.15,11c.05,3.47,1.41,9.76,5.46,10.63A2,2,0,0,0,27.5,21C29.71,17.81,26.23,12,24,9.5c-3.64-4.1-9.19-7.12-14.64-5C-2.93,9.22-.49,24.59,2.13,34.66,5.41,47.32,13.73,59.15,23.65,67.6c8.18,7,22.67,8.73,30.83,1C56.34,66.88,53.25,64.34,51.4,66.09Z"/></g></g></svg>