<svg xmlns="http://www.w3.org/2000/svg" viewBox="0 0 248.83 325"><defs><style>.cls-1{isolation:isolate;}.cls-2{fill:#fff;}.cls-3{mix-blend-mode:multiply;}.cls-4{fill:#cd79e8;}.cls-5{fill:#f79d4f;}</style></defs><title>cosout_solo</title><g class="cls-1"><g id="Layer_2" data-name="Layer 2"><g id="Layer_1-2" data-name="Layer 1"><rect class="cls-2" width="248.83" height="325"/><g class="cls-3"><path class="cls-4" d="M80,103.12c-5.6,5-10,9.23-17.67,10.85-2.55.54-4.9.25-7.53.33s-4.69.82-7.24,1.28c-5.83,1-11.17-.23-16.78-1.61C19.52,111.19,8.66,102.46,7.9,90.34c-.56-9.07-1.09-19.45,4-27.23,5.65-8.64,16-18.67,27.09-19.32,5-.3,10.18.12,15.22,0,5.89-.09,9.84,2.16,14.64,5.5a34.33,34.33,0,0,1,11.55,13.2c1.21,2.55,2.9,4.55,3.87,7.19.88,2.37,1.26,4.85,2.56,7.07,2.41,4.08,2.38,11.19.34,15.92-1.79,4.14-6.81,9.76-6.91,10.2"/><path d="M78.86,101.47c-5.73,5.1-11.6,10.37-19.66,10.81-7.85.43-15.56,2.38-23.4.77-7.3-1.49-14.26-4-19.6-9.44-5.82-5.92-6.54-13.3-6.62-21.21-.08-8.32,1.53-15.39,6.77-22,4.71-5.94,10.91-11.61,18.33-13.79,3.91-1.14,8-.94,12.07-.86,4.5.08,9.39-.45,13.69,1.12,7.67,2.82,14.25,9.26,18,16.35a65.06,65.06,0,0,1,5,10.78c1.21,3.69,3.12,6.64,3.16,10.67.09,7.6-4.8,11.37-8.22,17.38-1.29,2.27,2.39,4,3.67,1.71,3.5-6.14,8.09-9.85,8.54-17.45a21.3,21.3,0,0,0-1.9-10.21c-1.78-4-2.92-8-5.08-11.87C79.09,56.11,74.15,49.74,65.9,45c-7.78-4.44-18.41-4-27.08-3.26C23.12,43.11,7.94,59,6,74.32c-1,7.81-1.27,17.56,2.2,24.82,3.26,6.84,9.55,12,16.45,14.89a53.67,53.67,0,0,0,15.07,3.76c5.36.55,10.07-1.17,15.32-1.47s9.64-.28,14.56-2.77c4.39-2.22,8-5.53,11.65-8.78,1.92-1.71-.4-5-2.35-3.3Z"/></g><g class="cls-3"><path class="cls-5" d="M59.21,71.08C51.23,75,46.52,75.27,40,68.75,32.22,60.94,30.1,50.16,25.21,41c-3.73-7-8.31-16.35-5.81-24.81,1.27-4.32,8.49-9.27,12.93-9.42,6.63-.21,8.83,6.55,14.06,9,9.72,4.52,19-5.26,29.26-2.1C81.35,15.41,82,20.27,82,25.06c0,4.11-1.48,8.63-1.9,12.73s-3.13,9-4.88,12.55a49.76,49.76,0,0,1-4.73,7.92c-2.44,3.16-9.59,11.28-12.38,12.55"/><path d="M58.51,69.18C55.9,70.42,53,71.86,50,71.85c-4.34,0-8-3.53-10.54-6.7-4.4-5.43-6.71-12.11-9.4-18.47-4.62-10.92-18.45-31.9.33-37.49,6.26-1.86,9.17,4.77,13.67,7.57,4.14,2.58,8.89,2.55,13.49,1.46,5.86-1.39,14.84-6.11,20.17-1.16,4.82,4.47,1.29,14.23.47,19.59-1.1,7.18-5.29,15.22-9.76,20.92-3.15,4-7,9.11-11.51,11.58-2.28,1.25.08,4.54,2.34,3.31,4.92-2.68,9.18-8.25,12.53-12.61,4.63-6,9-14.16,10.28-21.69,1.14-6.62,3.85-15.25.27-21.62-3.31-5.89-10.81-6.16-16.68-4.82-3.88.89-7.61,2.57-11.58,3.07-5,.63-8.31-1.49-11.72-4.88-4.39-4.36-9-6.54-15-3.87C21,8.85,16.81,13.87,16.68,20.91c-.17,9.21,5.05,16.92,8.67,25,3.82,8.51,6.58,17.67,13.38,24.41C45.25,76.78,51.89,76.78,59.9,73c2.33-1.11,1-4.92-1.39-3.8Z"/></g></g></g></g></svg>