<svg xmlns="http://www.w3.org/2000/svg" viewBox="0 0 60.22 73.72"><defs><style>.cls-1{isolation:isolate;}.cls-2{mix-blend-mode:multiply;}.cls-3{fill:#cd79e8;}</style></defs><title>coso_ico_trig</title><g class="cls-1"><g id="Layer_2" data-name="Layer 2"><g id="Layer_1-2" data-name="Layer 1"><g class="cls-2"><path class="cls-3" d="M53,67.39a11.75,11.75,0,0,1-8.26,3.89c-4,.3-9.1.52-12.71-1.16-3.43-1.59-5.51-2.4-8.15-5.07a130.91,130.91,0,0,1-9.06-9.64c-1.89-2.33-2.91-5-4.79-7.31a6.61,6.61,0,0,1-1.51-2.81,19.38,19.38,0,0,0-1.94-4.16C5,38.49,4.41,35.45,3.66,32.55a37.62,37.62,0,0,1-1.34-7.49c-.21-5-1-11.13,2.68-15C8.85,6,13.83,4,18.69,7.71c2.18,1.67,4.46,3,5.41,5.58.52,1.41,2.24,4.09,2.24,5.94a.55.55,0,0,1-.94.37A13.1,13.1,0,0,1,22.3,8.67C22.79,5,29,2.06,32.37,1.94c2.34-.08,4.12-.14,6.15,1.13a29.93,29.93,0,0,1,5.56,4.45c1.61,1.62,3.54,3.06,4.45,5.16,1,2.38,2.06,4.73,2.89,7.19,1.44,4.25,2.9,6.77,4.24,11a119,119,0,0,1,2.13,13.94c.19,4.08,0,8.23,0,12.32C57.77,60.72,55.9,64.46,53,67.39Z"/><path d="M51.41,66.1c-6.54,6.17-18.79,3.71-25.17-1.57A60.22,60.22,0,0,1,9.85,43.14c-3.43-7.84-5.93-15.26-5.73-24C4.28,12.2,9.92,5,17.4,9.27A13.32,13.32,0,0,1,22.2,14c.24.42,2.3,4.35,2.23,4.44l1.92-.7c-1.43-.31-2.09-5.06-2.16-6.26C24,8.15,25.81,6.27,28.67,5A10.24,10.24,0,0,1,39.59,6.26c3,2.18,6.13,5.16,7.66,8.54,1.66,3.68,2.88,7.54,4.42,11.27A60.16,60.16,0,0,1,55.58,43c.87,7.86,1.47,17-4.17,23.13-1.77,1.92,1.35,4.5,3.11,2.59,7.19-7.78,6.06-19.36,4.69-29.2A55.85,55.85,0,0,0,56.39,26.9c-2.1-5.47-3.77-12.38-7.28-17.12C43.56,2.29,34.84-3,25.89,1.88,22.09,4,20.1,6.69,20.15,11.06c.05,3.49,1.42,9.78,5.48,10.66a2,2,0,0,0,1.92-.7c2.22-3.18-1.26-9-3.5-11.51-3.65-4.11-9.2-7.13-14.66-5C-2.93,9.22-.5,24.61,2.13,34.7c3.29,12.66,11.61,24.49,21.53,33,8.19,7,22.7,8.74,30.86,1C56.41,66.9,53.29,64.33,51.41,66.1Z"/></g></g></g></g></svg>