<svg xmlns="http://www.w3.org/2000/svg" viewBox="0 0 440.5 393"><defs><style>.cls-1{isolation:isolate;}.cls-2{fill:#fff;}.cls-3{mix-blend-mode:multiply;}.cls-4{fill:#f79d4f;}.cls-5{fill:#ffe94a;}.cls-6{fill:#cd79e8;}.cls-7{fill:#1d1d1b;}</style></defs><title>cosout</title><g class="cls-1"><g id="Layer_2" data-name="Layer 2"><g id="Layer_1-2" data-name="Layer 1"><rect class="cls-2" width="440.5" height="393"/><g class="cls-3"><path class="cls-4" d="M341.78,101.89a19.42,19.42,0,0,1-6.61,3.62c-1.3.39-2.42,1.18-4.25,2.83a60.84,60.84,0,0,0-7.33,7.78c-5.78,7.34-4.74,15.71-4.48,24.87a22.75,22.75,0,0,0,6.83,14.51c3.64,3.24,9.93,3.81,14.36,4.7,5.3,1.07,8.93,3.37,14.55,3.31,5.24-.06,11.06.94,15.88-1.52,10.21-5.23,19.77-12.67,23.77-23.69,3.34-9.21.6-19.2-5.58-26.4-6.33-7.38-14.86-11.73-24.69-11.68C359.91,100.24,346.35,98.19,341.78,101.89Z"/><path d="M340.6,100.24c-3.46,2.62-7.55,3.57-10.85,6.45a47.94,47.94,0,0,0-8.94,9.88c-4.59,7.09-4.13,15.7-3.75,23.78.32,6.58,3.37,14.09,9.08,17.81,3.13,2,6.92,2.78,10.53,3.44,4.28.78,8.29,2.23,12.5,3.24,7.47,1.8,17.21,1.78,24.06-1.9,7.57-4.07,14.7-9.4,19.48-16.65,9.51-14.44,4.73-32.26-9.12-42-7.19-5-14.69-5.75-23.16-6.29-6.29-.4-14.32-1.59-19.83,2.23-2.14,1.48.2,4.78,2.35,3.3,4.17-2.89,10.92-1.91,15.69-1.61,5.54.34,11.15.21,16.39,2.3,14.64,5.82,23.6,22.74,15.8,37.35-3.25,6.08-8.44,10.84-14.13,14.6-3.24,2.15-6.81,4.53-10.7,5.19-3.42.58-7.07.25-10.51.12-6.58-.23-13-2.87-19.48-4.14-7.81-1.53-13.09-6.22-14.59-14.23-1.35-7.19-1.47-17,2.24-23.51a38.09,38.09,0,0,1,9.69-10.7c3-2.19,6.59-3.09,9.6-5.37C345,102,342.69,98.65,340.6,100.24Z"/></g><g class="cls-3"><path class="cls-5" d="M364.59,124.55c-13.36.29-19-11.12-20.95-22.89-1.07-6.63-.14-14.19-.14-20.91V59.57c0-11-1.56-23.59,1.26-34,.71-2.59-.3-5.21.24-7.75A18.18,18.18,0,0,1,348.7,11c3.24-4,11.19-6.8,15.95-3.81,5.39,3.38,5.38,13.59,6.29,19.12s-1.38,11.94,1.2,17.12c4,8,10.74,4.6,12-2.83.39-2.33.92-4.42,1.4-6.79.69-3.38-.32-6.8.47-10.19,1.16-5,3.73-11,9.41-11,7.7,0,9.64,9.54,11.37,15.51,1.83,6.34,1.61,12.1,1.61,18.68,0,2.11,0,4.23,0,6.34,0,3.82-1.06,6.25-1.71,9.78-.71,3.93-.31,5.46-2.14,9.29-1.74,3.63-2.41,8-3.85,11.84-2.76,7.33-6.56,13.68-9.82,20.73-2.09,4.53-2.65,7.75-6.41,11.4-2.58,2.5-5,5.5-7.84,7.7-4.66,3.62-11.28,2.36-16.9,2.36"/><path d="M364.43,122.54c-13.13-.15-18.3-13.1-19.15-24.43-.49-6.45.22-13,.24-19.45,0-7.52.11-15.06,0-22.59-.14-6.75-.67-13.52-.24-20.27a60.43,60.43,0,0,1,1.12-8.27c.76-3.82-.14-8.25,1.55-11.74,2.53-5.21,10.72-11,16.29-6.47,3.87,3.13,3.81,10.07,4.38,14.55.94,7.44-2.6,22.22,7,25.73,9.21,3.35,11.7-11.43,12.17-17.17.45-5.33-.83-13,4.43-16.72,6.53-4.57,10.11,4.23,11.53,8.92,3.6,11.85,3.62,25,1.16,37-.69,3.34-.95,6.41-2.17,9.63-1,2.63-1.82,5.17-2.61,7.87-2.24,7.6-6,14.42-9.52,21.5-1.39,2.83-2.48,5.78-3.83,8.62-1.7,3.58-4.39,6.13-7.12,8.93-2.93,3-5.42,5.48-9.79,6-3.39.41-6.87,0-10.27-.07-2.61,0-2.26,4,.33,4,6.09.09,12.65,1.09,17.9-2.73,4.65-3.38,9.82-8.7,12.33-13.87,6.57-13.5,12.94-27.06,17.36-41.43.77-2.53.84-5.21,1.37-7.79a54.38,54.38,0,0,0,1.55-11.05c.05-7.3.48-14.81-1.2-22-1.78-7.6-5.17-20.87-15.73-18.6-13.51,2.9-7.93,23.34-12.14,32.08-3,6.23-7.85.53-8.36-4.08-.4-3.7.44-7.42.17-11.12-.38-5.19-.89-11.08-2.76-15.95-3.84-10-16.2-9.68-22.86-2.44a19.22,19.22,0,0,0-4.08,6.8c-1.12,3.45-.4,7.2-1.06,10.76C341,34.35,341,41.86,341.22,49.52c.32,9.5.26,19,.26,28.5,0,8.56-1.15,17.29.5,25.76,2.37,12.2,9.36,22.64,22.77,22.79,2.61,0,2.27-4-.32-4Z"/></g><g class="cls-3"><path class="cls-6" d="M170.12,346.65c-7.9,4-17,3.38-26.05,3.24-10.84-.17-21.89-5.59-30.36-12.07-3.67-2.81-9.38-9.27-10.22-13.88-1-5.48.14-12.28.11-17.89,0-6.32.13-9.85,4.8-14.56s11.5-10.28,17.47-13.1c3.37-1.58,6.73-1.08,10.1-2.47,2.84-1.16,3.82-2.16,6.93-2.31a61.85,61.85,0,0,1,16.26,1.29c2.81.61,5.31-.06,8.07.25,3.5.39,4.35,1.94,6.9,4,5.7,4.51,10.35,7.88,12.69,15.18,1,3,.57,5.2,1.1,8.23s1.58,5.54,1.71,8.84c.24,6.05-.56,9.16-2.84,14.52s-12,17-16.89,20.62"/><path d="M169.43,344.75c-8.49,3.88-19.07,3.92-28.25,2.94-8.76-.94-17.11-4.93-24.22-10-6.73-4.79-11.89-10.94-11.86-19.48,0-3.86.45-7.7.51-11.55.07-4.08-.14-8.13,2.37-11.61,4.28-6,13.16-13.25,20.27-15.4,3.84-1.17,7.41-1.66,11.18-3.11,4.82-1.85,10.8-1.09,15.8-.31,3.93.6,7.75.41,11.64.9,3.42.43,6.33,3.77,8.91,5.86a29.08,29.08,0,0,1,7.42,8.06c2.39,4.25,2.1,8.8,3.07,13.42,1.85,8.8,1.59,16.6-3.46,24.35-3.78,5.8-8.58,11.78-14.08,16-2.06,1.58.27,4.9,2.35,3.3,11.75-9,22.91-24.49,20.19-40-1.52-8.64-1.91-17.34-8.24-24.05a95.38,95.38,0,0,0-9.47-8.14c-3.05-2.47-5.85-2.86-9.72-2.87-5.51,0-10.92-1.43-16.46-1.55a28.19,28.19,0,0,0-6.81.36c-3.13.71-5.76,2.42-9,3-9.47,1.83-16.9,7.57-23.73,14.25s-6,13.92-6.53,23c-.23,4.1-.7,8.42.25,12.47s3.84,7.82,6.7,10.89c7,7.52,17.35,13,27.29,15.31,10.85,2.54,25,2.4,35.23-2.28,2.36-1.08,1-4.89-1.38-3.8Z"/></g><g class="cls-3"><path class="cls-5" d="M145.47,304.15c-3.21.29-6.09,3.08-9.42,3.65a51.26,51.26,0,0,1-11.68,0c-6-.56-12.28-3.9-17.9-5.91s-13.83-4.48-19.13-7.48C76.9,288.5,68.4,272,66.7,265.45c-7.8-29.95-4.05-42.36-2.31-48.63S72.54,206,77.65,202.4c8-5.68,20.52-7.28,30-4.27,9.24,2.94,20,12.57,24.18,21.24,2.43,5.09,4.82,9.85,7.45,14.89a155.23,155.23,0,0,1,7.33,17.3c2.17,5.67,5.6,9.76,5.73,16,.13,5.93-.05,11.9,0,17.84,0,2.34-2.63,11.32-3.47,13.25a17.45,17.45,0,0,1-2.29,4.26"/><path d="M145.31,302.13c-4.88.95-8.54,3.87-13.7,4-7,.15-13.08-1.6-19.55-4.21-9.24-3.73-20.32-5.65-28-12.37-14.68-12.88-19.35-34-20.06-52.72a60,60,0,0,1,1.55-16.64c2.11-8.55,9.83-15.18,17.75-18.67a33.4,33.4,0,0,1,33.3,3.68c10.05,7.31,14.35,17.39,19.85,28.1,3.18,6.18,5.59,12.54,8.2,19,2.44,6,5.49,10.75,5.65,17.45.23,10,1.06,23.29-5.37,31.91-1.55,2.08,1.55,4.69,3.12,2.59,5.13-6.89,6.18-16.64,6.25-24.91.06-6.74.75-13.6-1.91-20-2.74-6.52-5.5-13.08-8.32-19.56s-6.42-12.95-9.59-19.42a48.09,48.09,0,0,0-10.42-14.25c-8.3-7.79-18.38-12.28-29.89-11.37-11,.86-22.31,6.91-28.88,15.87-3.49,4.76-4.61,11.45-5.12,17.21-1.7,19.24,2.71,41.17,14.2,56.89,3.3,4.5,7.21,8.74,12.09,11.53,5.94,3.4,12.73,5.13,19.12,7.47,7.08,2.59,13.54,5.81,21.18,6.29a37.57,37.57,0,0,0,9.42-.19c3.39-.66,6.06-3,9.42-3.64,2.54-.49,2.23-4.53-.32-4Z"/></g><path class="cls-2" d="M91.9,228.5c-2.43-.08-2.94.86-5.27,1.41-1.28.31-6.24.46-7.48-.32-6.22-3.9,1.75-13.29,5.74-15.18,4.41-2.09,11.84-4.66,15.56.12,4.4,5.66-2.53,12.85-8.2,13.68"/><path class="cls-7" d="M91.74,226.48c-3.47.17-8,3.29-11.49,1.25-4-2.39,1.75-8.81,4-10.51,2.79-2.1,8-4.1,11.47-3.26,8.52,2,1.7,11.14-3.63,12.23-2.53.52-2.23,4.57.32,4,6.35-1.3,13.79-7.81,10.79-14.95-3.24-7.72-13.09-5.76-19-2.77-4.75,2.41-10.52,8.88-9.15,14.65.7,3,3.06,4.56,6,4.92a19.56,19.56,0,0,0,5.24-.05c2-.32,3.75-1.41,5.83-1.51,2.61-.13,2.27-4.17-.33-4Z"/></g></g></g></svg>