<svg xmlns="http://www.w3.org/2000/svg" viewBox="0 0 303.93 159.06"><defs><style>.cls-1{font-size:58.68px;font-family:Karla-Regular, Karla;}.cls-2{fill:#1d1d1b;}</style></defs><title>logo</title><g id="Layer_2" data-name="Layer 2"><g id="Layer_1-2" data-name="Layer 1"><text class="cls-1" transform="translate(26.76 144.62)">anemone</text><path d="M173.56,66.09c-6.55,6.18-18.81,3.72-25.2-1.57A60.08,60.08,0,0,1,132,43.12c-3.44-7.84-5.93-15.26-5.73-24,.16-7,5.82-14.23,13.32-9.9A13.38,13.38,0,0,1,144.36,14c.25.43,2.31,4.35,2.23,4.47l1.89-.69c-1.46-.31-2.12-5.07-2.18-6.28-.17-3.33,1.63-5.23,4.5-6.51a10.25,10.25,0,0,1,10.94,1.27c3,2.19,6.14,5.17,7.67,8.55,1.66,3.68,2.88,7.55,4.42,11.28a60.08,60.08,0,0,1,3.91,16.9c.87,7.86,1.47,17-4.18,23.15-1.74,1.89,1.33,4.44,3.08,2.55,7.17-7.77,6-19.34,4.68-29.17a56.07,56.07,0,0,0-2.82-12.58c-2.1-5.47-3.77-12.38-7.28-17.12C165.68,2.29,157-3,148,1.88c-3.79,2.06-5.77,4.79-5.71,9.15,0,3.47,1.4,9.76,5.45,10.63a2,2,0,0,0,1.89-.69c2.21-3.16-1.26-9-3.49-11.47-3.64-4.1-9.19-7.12-14.64-5-12.3,4.74-9.86,20.11-7.24,30.18,3.29,12.66,11.6,24.49,21.52,32.94,8.18,7,22.67,8.73,30.83,1C178.5,66.88,175.41,64.34,173.56,66.09Z"/><path class="cls-2" d="M267.22,68.48c-7.85-.08-15.34-.67-20.13-7.63-5.08-7.39-5.56-16-5.6-24.64,0-5.53.88-11.72-2.58-16.45-1.7-2.33-4.07-4.07-5.74-6.42C231.92,11.59,230.09,8,231.83,6c1.4-1.65,4.6-1.1,6.35-.74,6.71,1.37,12,6.11,19,6.7,7.37.61,14.73-1,22.05.56,17.36,3.68,24.06,21,19,36.78a24.33,24.33,0,0,1-14.31,15.26,53.71,53.71,0,0,1-16.71,4c-2.57.1-2.24,4.09.32,4,11.68-.48,28.07-6.09,33-17.67C307.3,39,304.33,19.94,288,11.41c-7.78-4.08-16.3-3.69-24.81-3.41a31.8,31.8,0,0,1-8.66-.47c-3.12-.77-5.85-2.52-8.74-3.85A27.59,27.59,0,0,0,236.28.93c-6.13-.4-10.7,4-8.72,10.3,1.06,3.37,3.51,5.91,5.88,8.38,3.82,4,4.06,7.21,4.06,12.56,0,10.83-.11,21.68,6.34,31,5.72,8.28,14.25,9.21,23.7,9.3C270.11,72.49,269.77,68.5,267.22,68.48Z"/><path d="M49.5,69C33.19,73.11,13.1,61.28,6.62,46.33c-2-4.67-3.53-9.8-2.11-14.88,1.1-3.91,3.92-8,6.42-11.21,2.18-2.78,5.6-4.9,8.29-7.22A41,41,0,0,1,26.3,7.94c7.88-4.28,17.41-1.4,25.06,1.78S66.25,18,69.09,26.31c1.37,4,1.26,8,1.28,12.15,0,5.82-.38,10.65-2.67,16a23.27,23.27,0,0,1-6.29,8.89C58.05,66.28,53.65,67.51,49.5,69c-2.43.84-1.06,4.59,1.37,3.75,7-2.41,13-4.67,17.4-10.9,5-7.15,6.12-15.17,6.08-23.66,0-8-1-15-6.07-21.41C63.62,10.87,56.65,7.31,49.73,4.84c-7.46-2.65-15.25-4.38-23-1.52-5.38,2-9.64,6.58-14,10C7.21,17.67,1.87,24.59.42,31.54-1.15,39.12,1.88,47.39,6,53.69c5,7.53,13,12.51,20.9,16.58,6.86,3.55,16.45,4.35,23.94,2.43C53.36,72.07,52,68.32,49.5,69Z"/></g></g></svg>