<svg xmlns="http://www.w3.org/2000/svg" viewBox="0 0 78.46 75.63"><defs><style>.cls-1{fill:#fff;}</style></defs><title>sliderthumb</title><g id="Layer_2" data-name="Layer 2"><g id="Layer_1-2" data-name="Layer 1"><path class="cls-1" d="M52.23,70.87c-3,1-7.21.54-10.34.47A25.15,25.15,0,0,1,31.3,68.26c-3.45-1.72-7-2.79-10.26-4.9a38.45,38.45,0,0,1-9.37-8.16C8.4,51.31,6.72,47.26,5.09,42.54a20.93,20.93,0,0,1-.5-11.4c.94-3.85,4-7.44,6-10.85,2.11-3.64,5.88-5.22,8.77-8.17a21.2,21.2,0,0,1,5-3.53c1.81-1.07,3-2.71,5.08-3.35A40,40,0,0,1,40.53,3.91c3.54-.05,6.43,1.47,9.75,2.57,6.43,2.12,14.1,5.93,18.42,11.46a25.18,25.18,0,0,1,5.69,16.41c0,3.33.06,6.66,0,10,0,4-1.42,7.42-2.86,11.07a21.93,21.93,0,0,1-6.32,9.05,10.62,10.62,0,0,1-4.08,3.07C58.94,68.4,55.33,69.83,52.23,70.87Z"/><path d="M50.84,67.06C42.41,69.22,34.5,65.38,27.08,62A32.36,32.36,0,0,1,10.6,45.67c-1.68-3.86-3-7.94-2.34-12.2.63-3.84,3.13-7,5.19-10.18s5.11-5,7.89-7.53,6.87-5.85,10.46-7c7.92-2.46,16.32.58,23.44,4,6.64,3.22,12.44,8.21,14.4,15.59a41.89,41.89,0,0,1-1.76,25.27c-3.43,8.18-9.11,10.63-17,13.37-4.92,1.71-2.16,9.32,2.77,7.62,7-2.43,13.2-4.82,17.83-10.86,5.25-6.86,7-15.38,7-23.8S78,24,72.94,16.84C68.66,10.79,62.08,6.73,55.29,4,47.29.81,40-1,31.38.63,24,2.07,18,8.06,12.31,12.65,6.83,17.05,1.42,25,.29,32-1,39.92,2.07,48.38,6.41,54.93,11.75,63,19.56,67.33,28.1,71.23c8.09,3.69,16.66,5.71,25.51,3.45C58.66,73.39,55.86,65.78,50.84,67.06Z"/></g></g></svg>