<svg xmlns="http://www.w3.org/2000/svg" viewBox="0 0 76.9 71.61"><defs><style>.cls-1{isolation:isolate;}.cls-2{mix-blend-mode:multiply;}.cls-3{fill:#f79d4f;}</style></defs><title>tamacoso_ico_trig</title><g class="cls-1"><g id="Layer_2" data-name="Layer 2"><g id="Layer_1-2" data-name="Layer 1"><g class="cls-2"><path class="cls-3" d="M40.32,69.59c-4.31,0-10.84-.48-14.78-2-4.49-1.73-8.77-8.13-10.3-12.52-1.65-4.7-2.83-8.45-2.79-13.47,0-4.07,0-8.15,0-12.22.06-6.55-.74-8.3-5.31-12.71C4.34,14-.24,8.13,3.23,3.82,6,.35,13.34,2.64,16.4,3.92c4.13,1.72,7.86,4.44,12.42,5,4.81.6,10.21-.06,15.06-.07,10.62,0,19.24,3.07,25.92,11.82,5.7,7.47,6.78,18.23,3.68,27.07-.83,2.37-1.61,5.66-3,7.7a14.39,14.39,0,0,1-3.83,4.09,81.6,81.6,0,0,1-7.06,5.12C57.21,66.1,43.81,69.59,40.32,69.59Z"/><path d="M40.16,67.57c-7.85-.08-15.32-.67-20.11-7.62C15,52.57,14.5,44,14.46,35.33c0-5.54.88-11.73-2.59-16.47-1.7-2.33-4.07-4.06-5.74-6.42C4.89,10.7,3.06,7.14,4.79,5.11,6.18,3.47,9.38,4,11.11,4.37c6.71,1.37,12,6.12,19,6.7,7.37.62,14.73-1,22.05.57,17.35,3.67,24,21,19,36.74A24.27,24.27,0,0,1,56.86,63.62a53.31,53.31,0,0,1-16.7,3.95c-2.61.11-2.28,4.14.32,4,11.7-.48,28.09-6.1,33-17.69C80.27,38.1,77.29,19,61,10.5,53.21,6.42,44.68,6.81,36.17,7.09a32.2,32.2,0,0,1-8.66-.46c-3.12-.78-5.84-2.53-8.73-3.86A27.35,27.35,0,0,0,9.22,0C3.07-.38-1.52,4.07.47,10.36c1.06,3.37,3.52,5.91,5.9,8.39,3.81,4,4,7.2,4,12.54,0,10.84-.11,21.69,6.34,31,5.74,8.28,14.27,9.21,23.73,9.31C43.09,71.63,42.74,67.59,40.16,67.57Z"/></g></g></g></g></svg>