<svg xmlns="http://www.w3.org/2000/svg" viewBox="0 0 76.84 71.55"><defs><style>.cls-1{fill:#1d1d1b;}</style></defs><title>tamacoso_ico</title><g id="Layer_2" data-name="Layer 2"><g id="Layer_1-2" data-name="Layer 1"><path class="cls-1" d="M40.13,67.57c-7.85-.08-15.34-.67-20.13-7.63-5.08-7.39-5.56-16-5.59-24.64,0-5.53.87-11.72-2.59-16.45-1.7-2.33-4.07-4.06-5.74-6.42C4.84,10.68,3,7.1,4.74,5.06c1.4-1.65,4.6-1.1,6.35-.74,6.71,1.37,12,6.11,19,6.7,7.37.61,14.73-1,22.05.57,17.36,3.67,24.06,21,19,36.77A24.31,24.31,0,0,1,56.84,63.62a53.37,53.37,0,0,1-16.71,3.95c-2.57.1-2.24,4.09.32,4,11.69-.48,28.07-6.09,33-17.67C80.22,38.07,77.24,19,61,10.5c-7.78-4.08-16.3-3.69-24.8-3.41a31.87,31.87,0,0,1-8.67-.47c-3.12-.77-5.85-2.52-8.73-3.85A27.41,27.41,0,0,0,9.19,0c-6.13-.41-10.7,4-8.72,10.3C1.53,13.69,4,16.23,6.36,18.7c3.81,4,4.05,7.21,4.05,12.56,0,10.83-.11,21.68,6.34,31,5.73,8.28,14.25,9.21,23.7,9.3C43,71.58,42.68,67.59,40.13,67.57Z"/></g></g></svg>